<?xml version="1.0" encoding="iso-8859-1"?>
<!-- Generator: Adobe Illustrator 19.1.0, SVG Export Plug-In . SVG Version: 6.00 Build 0)  -->
<svg version="1.1" id="Capa_1" xmlns="http://www.w3.org/2000/svg" xmlns:xlink="http://www.w3.org/1999/xlink" x="0px" y="0px"
	 viewBox="0 0 194.665 194.665" style="enable-background:new 0 0 194.665 194.665;" xml:space="preserve">
<g>
	<path d="M111.769,194.665H71.756c-0.441,0-0.8-0.358-0.8-0.8V98.084H52.284c-0.441,0-0.8-0.358-0.8-0.8V64.776
		c0-0.441,0.358-0.8,0.8-0.8h18.672l-0.001-26.107c-0.042-11.396,3.244-20.494,9.769-27.042C87.881,3.643,98.658,0,112.754,0h29.627
		c0.441,0,0.8,0.358,0.8,0.8v33.84c0,0.441-0.358,0.8-0.8,0.8h-21.793c-3.801,0-7.873,4.102-7.873,6.988v21.426h29.627
		c0.222,0,0.435,0.092,0.586,0.255c0.151,0.162,0.228,0.381,0.212,0.603c-1.211,16.88-3.715,32.544-3.74,32.7
		c-0.062,0.388-0.397,0.673-0.79,0.673h-26.041v95.781C112.568,194.307,112.21,194.665,111.769,194.665z M72.556,193.065h38.413
		V97.284c0-0.441,0.358-0.8,0.8-0.8h26.156c0.479-3.107,2.476-16.526,3.557-31.031h-29.566c-0.441,0-0.8-0.358-0.8-0.8V42.428
		c0-3.671,4.684-8.588,9.473-8.588h20.993V1.6h-28.827c-13.655,0-24.051,3.484-30.896,10.356
		c-6.213,6.235-9.343,14.952-9.303,25.907l0.001,0.332v26.581c0,0.441-0.358,0.8-0.8,0.8H53.084v30.908h18.672
		c0.441,0,0.8,0.358,0.8,0.8V193.065z"/>
</g>
<g>
</g>
<g>
</g>
<g>
</g>
<g>
</g>
<g>
</g>
<g>
</g>
<g>
</g>
<g>
</g>
<g>
</g>
<g>
</g>
<g>
</g>
<g>
</g>
<g>
</g>
<g>
</g>
<g>
</g>
</svg>
